<mxfile host="app.diagrams.net" modified="2022-03-21T14:36:24.366Z" agent="5.0 (Macintosh; Intel Mac OS X 10_14_2) AppleWebKit/537.36 (KHTML, like Gecko) Chrome/99.0.4844.74 Safari/537.36" etag="lYHrgx0KELTH-57-mv0x" version="17.1.3" type="github">
  <diagram name="Page-1" id="d9b1e647-80fa-b4a2-5024-87a742678bcc">
    <mxGraphModel dx="1577" dy="983" grid="1" gridSize="10" guides="1" tooltips="1" connect="1" arrows="1" fold="1" page="1" pageScale="1" pageWidth="1100" pageHeight="850" background="none" math="0" shadow="0">
      <root>
        <mxCell id="0" />
        <mxCell id="1" parent="0" />
        <mxCell id="57fe6abec08f04cb-1" value="WebView&lt;br&gt;初始化" style="shape=step;whiteSpace=wrap;html=1;fontSize=28;fillColor=#d5e8d4;strokeColor=#82b366;" parent="1" vertex="1">
          <mxGeometry x="90" y="180" width="170" height="80" as="geometry" />
        </mxCell>
        <mxCell id="57fe6abec08f04cb-2" value="LoadUrl" style="shape=step;whiteSpace=wrap;html=1;fontSize=28;fillColor=#d5e8d4;strokeColor=#82b366;" parent="1" vertex="1">
          <mxGeometry x="240" y="180" width="170" height="80" as="geometry" />
        </mxCell>
        <mxCell id="57fe6abec08f04cb-3" value="DNS" style="shape=step;whiteSpace=wrap;html=1;fontSize=28;fillColor=#0067CC;fontColor=#FFFFFF;strokeColor=none;" parent="1" vertex="1">
          <mxGeometry x="390" y="180" width="170" height="80" as="geometry" />
        </mxCell>
        <mxCell id="57fe6abec08f04cb-4" value="TCP" style="shape=step;whiteSpace=wrap;html=1;fontSize=28;fillColor=#0062C4;fontColor=#FFFFFF;strokeColor=none;" parent="1" vertex="1">
          <mxGeometry x="540" y="180" width="170" height="80" as="geometry" />
        </mxCell>
        <mxCell id="57fe6abec08f04cb-5" value="资源请求" style="shape=step;whiteSpace=wrap;html=1;fontSize=28;fillColor=#0062C4;fontColor=#FFFFFF;strokeColor=none;" parent="1" vertex="1">
          <mxGeometry x="690" y="180" width="170" height="80" as="geometry" />
        </mxCell>
        <mxCell id="urNTPmYLF7qrJtSu_KFi-2" value="解析" style="shape=step;whiteSpace=wrap;html=1;fontSize=28;fillColor=#f8cecc;strokeColor=#b85450;" parent="1" vertex="1">
          <mxGeometry x="850" y="180" width="170" height="80" as="geometry" />
        </mxCell>
        <mxCell id="urNTPmYLF7qrJtSu_KFi-3" value="首次渲染" style="shape=step;whiteSpace=wrap;html=1;fontSize=28;fillColor=#f8cecc;strokeColor=#b85450;" parent="1" vertex="1">
          <mxGeometry x="1010" y="180" width="170" height="80" as="geometry" />
        </mxCell>
        <mxCell id="urNTPmYLF7qrJtSu_KFi-5" value="" style="endArrow=none;dashed=1;html=1;rounded=0;entryX=0.011;entryY=0.043;entryDx=0;entryDy=0;entryPerimeter=0;fillColor=#dae8fc;strokeColor=#6c8ebf;strokeWidth=3;" parent="1" target="57fe6abec08f04cb-1" edge="1">
          <mxGeometry width="50" height="50" relative="1" as="geometry">
            <mxPoint x="92" y="560" as="sourcePoint" />
            <mxPoint x="110" y="290" as="targetPoint" />
          </mxGeometry>
        </mxCell>
        <mxCell id="urNTPmYLF7qrJtSu_KFi-7" value="" style="endArrow=none;dashed=1;html=1;rounded=0;strokeWidth=3;entryX=0.011;entryY=1.007;entryDx=0;entryDy=0;entryPerimeter=0;fillColor=#dae8fc;strokeColor=#6c8ebf;" parent="1" target="57fe6abec08f04cb-3" edge="1">
          <mxGeometry width="50" height="50" relative="1" as="geometry">
            <mxPoint x="392" y="480" as="sourcePoint" />
            <mxPoint x="390" y="320" as="targetPoint" />
          </mxGeometry>
        </mxCell>
        <mxCell id="urNTPmYLF7qrJtSu_KFi-8" value="" style="endArrow=none;dashed=1;html=1;rounded=0;strokeWidth=3;fillColor=#dae8fc;strokeColor=#6c8ebf;" parent="1" edge="1">
          <mxGeometry width="50" height="50" relative="1" as="geometry">
            <mxPoint x="100" y="480" as="sourcePoint" />
            <mxPoint x="390" y="480" as="targetPoint" />
          </mxGeometry>
        </mxCell>
        <mxCell id="urNTPmYLF7qrJtSu_KFi-9" value="&lt;font style=&quot;font-size: 26px&quot;&gt;Native&lt;br&gt;耗时&lt;/font&gt;" style="rounded=0;whiteSpace=wrap;html=1;fillColor=#d5e8d4;strokeColor=#82b366;" parent="1" vertex="1">
          <mxGeometry x="170" y="440" width="140" height="80" as="geometry" />
        </mxCell>
        <mxCell id="urNTPmYLF7qrJtSu_KFi-10" value="" style="endArrow=none;dashed=1;html=1;rounded=0;fontSize=26;strokeWidth=3;entryX=0.818;entryY=1.043;entryDx=0;entryDy=0;entryPerimeter=0;fillColor=#dae8fc;strokeColor=#6c8ebf;" parent="1" edge="1">
          <mxGeometry width="50" height="50" relative="1" as="geometry">
            <mxPoint x="839" y="430" as="sourcePoint" />
            <mxPoint x="839.29" y="243.44000000000005" as="targetPoint" />
          </mxGeometry>
        </mxCell>
        <mxCell id="urNTPmYLF7qrJtSu_KFi-11" value="" style="endArrow=none;dashed=1;html=1;rounded=0;fontSize=26;strokeWidth=3;entryX=0.818;entryY=1.043;entryDx=0;entryDy=0;entryPerimeter=0;fillColor=#dae8fc;strokeColor=#6c8ebf;" parent="1" edge="1">
          <mxGeometry width="50" height="50" relative="1" as="geometry">
            <mxPoint x="1500" y="550" as="sourcePoint" />
            <mxPoint x="1500" y="250.00000000000006" as="targetPoint" />
          </mxGeometry>
        </mxCell>
        <mxCell id="urNTPmYLF7qrJtSu_KFi-12" value="" style="endArrow=none;dashed=1;html=1;rounded=0;fontSize=26;strokeWidth=3;fillColor=#dae8fc;strokeColor=#6c8ebf;" parent="1" edge="1">
          <mxGeometry width="50" height="50" relative="1" as="geometry">
            <mxPoint x="400" y="430" as="sourcePoint" />
            <mxPoint x="830" y="430" as="targetPoint" />
          </mxGeometry>
        </mxCell>
        <mxCell id="urNTPmYLF7qrJtSu_KFi-13" value="&lt;font color=&quot;#ffffff&quot;&gt;网络耗时&lt;/font&gt;" style="rounded=0;whiteSpace=wrap;html=1;fontSize=26;fillColor=#0062C4;" parent="1" vertex="1">
          <mxGeometry x="610" y="400" width="120" height="60" as="geometry" />
        </mxCell>
        <mxCell id="urNTPmYLF7qrJtSu_KFi-14" value="" style="endArrow=none;dashed=1;html=1;rounded=0;fontSize=26;fontColor=#FFFFFF;strokeWidth=3;fillColor=#dae8fc;strokeColor=#6c8ebf;" parent="1" edge="1">
          <mxGeometry width="50" height="50" relative="1" as="geometry">
            <mxPoint x="840" y="380" as="sourcePoint" />
            <mxPoint x="1490" y="380" as="targetPoint" />
          </mxGeometry>
        </mxCell>
        <mxCell id="urNTPmYLF7qrJtSu_KFi-15" value="渲染耗时" style="rounded=0;whiteSpace=wrap;html=1;fontSize=26;fillColor=#f8cecc;strokeColor=#b85450;" parent="1" vertex="1">
          <mxGeometry x="1140" y="350" width="120" height="60" as="geometry" />
        </mxCell>
        <mxCell id="urNTPmYLF7qrJtSu_KFi-16" value="" style="endArrow=none;dashed=1;html=1;rounded=0;fontSize=26;fontColor=#FFFFFF;strokeWidth=3;fillColor=#dae8fc;strokeColor=#6c8ebf;" parent="1" edge="1">
          <mxGeometry width="50" height="50" relative="1" as="geometry">
            <mxPoint x="100" y="560" as="sourcePoint" />
            <mxPoint x="1490" y="560" as="targetPoint" />
          </mxGeometry>
        </mxCell>
        <mxCell id="urNTPmYLF7qrJtSu_KFi-17" value="总耗时" style="rounded=0;whiteSpace=wrap;html=1;fontSize=26;fillColor=#fff2cc;strokeColor=#d6b656;" parent="1" vertex="1">
          <mxGeometry x="780" y="530" width="120" height="60" as="geometry" />
        </mxCell>
        <mxCell id="urNTPmYLF7qrJtSu_KFi-18" value="接口请求" style="shape=step;whiteSpace=wrap;html=1;fontSize=28;fillColor=#0062C4;fontColor=#FFFFFF;strokeColor=none;" parent="1" vertex="1">
          <mxGeometry x="1180" y="180" width="170" height="80" as="geometry" />
        </mxCell>
        <mxCell id="NKzH_xDEJhhQY15b5Q0Q-1" value="首屏渲染" style="shape=step;whiteSpace=wrap;html=1;fontSize=28;fillColor=#f8cecc;strokeColor=#b85450;" vertex="1" parent="1">
          <mxGeometry x="1340" y="180" width="170" height="80" as="geometry" />
        </mxCell>
      </root>
    </mxGraphModel>
  </diagram>
</mxfile>
